<svg xmlns="http://www.w3.org/2000/svg" xmlns:xlink="http://www.w3.org/1999/xlink" width="128" zoomAndPan="magnify" viewBox="0 0 96 95.999999" height="128" preserveAspectRatio="xMidYMid meet" version="1.0"><defs><clipPath id="id1"><path d="M 11.519531 21 L 48 21 L 48 86.101562 L 11.519531 86.101562 Z M 11.519531 21 " clip-rule="nonzero"/></clipPath><clipPath id="id2"><path d="M 47 21 L 84.269531 21 L 84.269531 86.101562 L 47 86.101562 Z M 47 21 " clip-rule="nonzero"/></clipPath><clipPath id="id3"><path d="M 11.519531 9.601562 L 84.269531 9.601562 L 84.269531 33 L 11.519531 33 Z M 11.519531 9.601562 " clip-rule="nonzero"/></clipPath></defs><g clip-path="url(#id1)"><path fill="#dd2c00" d="M 47.894531 86.097656 L 11.519531 70.796875 L 11.519531 21.078125 L 47.894531 32.550781 Z M 47.894531 86.097656 " fill-opacity="1" fill-rule="nonzero"/></g><g clip-path="url(#id2)"><path fill="#a52005" d="M 47.894531 86.097656 L 84.269531 70.796875 L 84.269531 21.078125 L 47.894531 32.550781 Z M 47.894531 86.097656 " fill-opacity="1" fill-rule="nonzero"/></g><g clip-path="url(#id3)"><path fill="#ff3d00" d="M 11.519531 21.078125 L 47.894531 9.601562 L 84.269531 21.078125 L 47.894531 32.550781 Z M 11.519531 21.078125 " fill-opacity="1" fill-rule="nonzero"/></g><path fill="#ffffff" d="M 71.898438 57.820312 L 75.046875 33.757812 L 78.527344 32.550781 L 73.859375 64.558594 L 70.4375 65.96875 L 66.460938 45.070312 L 62.328125 69.3125 L 58.71875 70.796875 L 53.636719 41.1875 L 57.441406 39.867188 L 60.816406 62.167969 L 64.90625 37.277344 L 67.976562 36.214844 Z M 34.214844 61.433594 C 34.214844 60.8125 34.148438 60.238281 34.007812 59.703125 C 33.867188 59.167969 33.613281 58.632812 33.242188 58.09375 C 32.875 57.558594 32.367188 56.992188 31.722656 56.394531 C 31.082031 55.800781 30.257812 55.125 29.253906 54.375 C 28.160156 53.5625 27.152344 52.722656 26.234375 51.851562 C 25.320312 50.984375 24.53125 50.070312 23.875 49.113281 C 23.222656 48.160156 22.707031 47.144531 22.339844 46.074219 C 21.96875 45 21.785156 43.851562 21.785156 42.628906 C 21.785156 41.417969 21.976562 40.367188 22.363281 39.476562 C 22.746094 38.582031 23.289062 37.875 23.992188 37.351562 C 24.699219 36.828125 25.542969 36.511719 26.53125 36.410156 C 27.523438 36.304688 28.625 36.441406 29.839844 36.820312 C 31.140625 37.230469 32.320312 37.847656 33.367188 38.675781 C 34.417969 39.503906 35.308594 40.464844 36.035156 41.558594 C 36.769531 42.652344 37.328125 43.832031 37.722656 45.101562 C 38.113281 46.367188 38.308594 47.648438 38.308594 48.9375 L 34.21875 47.585938 C 34.21875 46.839844 34.128906 46.125 33.953125 45.441406 C 33.777344 44.757812 33.503906 44.128906 33.140625 43.554688 C 32.777344 42.980469 32.316406 42.476562 31.761719 42.046875 C 31.210938 41.617188 30.558594 41.28125 29.808594 41.039062 C 29.101562 40.8125 28.488281 40.71875 27.976562 40.765625 C 27.460938 40.808594 27.035156 40.960938 26.695312 41.226562 C 26.355469 41.492188 26.105469 41.855469 25.945312 42.316406 C 25.785156 42.773438 25.703125 43.300781 25.703125 43.898438 C 25.703125 45.023438 26.101562 46.089844 26.902344 47.105469 C 27.699219 48.125 28.929688 49.230469 30.585938 50.433594 C 31.890625 51.378906 33.027344 52.328125 33.992188 53.273438 C 34.957031 54.222656 35.765625 55.203125 36.410156 56.207031 C 37.054688 57.214844 37.535156 58.265625 37.851562 59.359375 C 38.164062 60.457031 38.324219 61.621094 38.324219 62.855469 C 38.324219 64.160156 38.125 65.261719 37.726562 66.15625 C 37.328125 67.054688 36.765625 67.730469 36.03125 68.191406 C 35.304688 68.648438 34.425781 68.878906 33.394531 68.882812 C 32.367188 68.890625 31.230469 68.660156 29.980469 68.195312 C 28.871094 67.78125 27.785156 67.179688 26.71875 66.386719 C 25.65625 65.597656 24.703125 64.652344 23.867188 63.550781 C 23.03125 62.449219 22.359375 61.214844 21.851562 59.847656 C 21.34375 58.488281 21.09375 57.007812 21.09375 55.414062 L 25 56.796875 C 25 57.753906 25.125 58.617188 25.378906 59.394531 C 25.636719 60.167969 25.984375 60.855469 26.425781 61.453125 C 26.871094 62.050781 27.394531 62.558594 28.003906 62.984375 C 28.613281 63.40625 29.269531 63.746094 29.980469 64.003906 C 31.378906 64.511719 32.4375 64.523438 33.144531 64.03125 C 33.859375 63.539062 34.214844 62.671875 34.214844 61.433594 Z M 34.214844 61.433594 " fill-opacity="1" fill-rule="nonzero"/></svg>